<svg width="58" height="31" viewBox="0 0 58 31" fill="none" xmlns="http://www.w3.org/2000/svg">
<path d="M24.8604 24.0776C24.8604 26.9341 24.4795 28.9082 23.7178 30H2.94189C1.93896 30 1.24707 29.7461 0.866211 29.2383C0.739258 29.0605 0.675781 28.8638 0.675781 28.6479C0.675781 28.1655 0.777344 27.7974 0.980469 27.5435C1.41211 27.6704 1.97705 27.7339 2.67529 27.7339C4.23682 27.7339 5.01758 26.7754 5.01758 24.8584V5.30127C5.01758 4.42529 4.64941 3.83496 3.91309 3.53027C3.69727 3.42871 3.43066 3.3335 3.11328 3.24463L2.16113 2.99707C1.55176 2.84473 1.1709 2.66064 1.01855 2.44482C0.878906 2.21631 0.809082 1.98779 0.809082 1.75928C0.809082 1.27686 0.910645 0.908691 1.11377 0.654785C1.40576 0.756348 2.03418 0.807129 2.99902 0.807129H11.3018C11.9619 0.807129 12.4888 0.915039 12.8823 1.13086C13.2759 1.33398 13.4727 1.71484 13.4727 2.27344C13.4727 2.70508 13.3774 3.02881 13.187 3.24463C12.7046 3.11768 12.2412 3.0542 11.7969 3.0542C11.3652 3.0542 11.0225 3.10498 10.7686 3.20654C10.5273 3.29541 10.3115 3.4541 10.1211 3.68262C9.74023 4.16504 9.53711 4.9585 9.51172 6.06299V25.3154C9.53711 26.2041 9.79736 26.8008 10.2925 27.1055C10.7114 27.3721 11.4795 27.5054 12.5967 27.5054L14.0249 27.4863L15.6626 27.4673C18.4302 27.4673 20.2393 26.8516 21.0898 25.6201C21.5088 25.0107 21.7881 24.249 21.9277 23.335C22.0801 22.4082 22.2134 21.3354 22.3276 20.1167C22.5308 19.9897 22.8037 19.9263 23.1465 19.9263C23.7939 19.9263 24.2319 20.0024 24.4604 20.1548C24.7271 21.1958 24.8604 22.5034 24.8604 24.0776ZM40.5518 30.1523C40.2598 30.0508 39.6313 30 38.6665 30H30.7256C30.0654 30 29.5322 29.8984 29.126 29.6953C28.7324 29.4795 28.5356 29.0923 28.5356 28.5337C28.5356 28.1401 28.6372 27.8164 28.8403 27.5625C29.3228 27.6895 29.7734 27.7529 30.1924 27.7529C30.6113 27.7529 30.9351 27.7085 31.1636 27.6196C31.3921 27.5308 31.5889 27.3721 31.7539 27.1436C32.1094 26.6738 32.2998 25.8804 32.3252 24.7632V5.0918C32.2871 4.20312 31.9951 3.63818 31.4492 3.39697C31.2842 3.3208 31.0557 3.25098 30.7637 3.1875L29.8496 2.99707C29.2148 2.84473 28.8276 2.66064 28.688 2.44482C28.5483 2.21631 28.4785 1.98779 28.4785 1.75928C28.4785 1.27686 28.5801 0.908691 28.7832 0.654785C29.0752 0.756348 29.7036 0.807129 30.6685 0.807129H38.6094C39.2695 0.807129 39.7964 0.915039 40.1899 1.13086C40.5835 1.33398 40.7803 1.71484 40.7803 2.27344C40.7803 2.70508 40.6851 3.02881 40.4946 3.24463C40.0122 3.11768 39.5488 3.0542 39.1045 3.0542C38.6729 3.0542 38.3301 3.10498 38.0762 3.20654C37.835 3.29541 37.6191 3.4541 37.4287 3.68262C37.0479 4.16504 36.8447 4.9585 36.8193 6.06299V25.7344C36.8447 26.3564 36.9653 26.7754 37.1812 26.9912C37.4985 27.2832 37.8857 27.48 38.3428 27.5815C38.7998 27.6704 39.1743 27.7529 39.4663 27.8291C39.771 27.8926 40.0249 27.9751 40.228 28.0767C40.6343 28.2798 40.8374 28.6226 40.8374 29.105C40.8374 29.5747 40.7422 29.9238 40.5518 30.1523ZM56.3193 3.1875C56.0146 3.08594 55.6782 3.03516 55.3101 3.03516C54.9419 3.03516 54.6499 3.10498 54.4341 3.24463C54.2183 3.37158 53.9834 3.55566 53.7295 3.79688C53.4756 4.02539 53.1963 4.30469 52.8916 4.63477L42.8369 15.0513C45.1602 15.6987 47.1724 17.2603 48.8735 19.7358C49.356 20.4341 49.8066 21.126 50.2256 21.8115L51.3872 23.792C52.644 25.9629 53.8057 27.0166 54.8721 26.9531C55.3926 26.9531 55.7988 26.8896 56.0908 26.7627C56.3955 26.6357 56.6113 26.5723 56.7383 26.5723C56.8652 26.5723 56.9985 26.6738 57.1382 26.877C57.2905 27.0674 57.3667 27.2896 57.3667 27.5435C57.3667 27.7974 57.2588 28.1021 57.043 28.4575C56.8271 28.8003 56.5225 29.1113 56.1289 29.3906C55.2402 30.0381 54.2563 30.3618 53.1772 30.3618C52.1108 30.3618 51.2539 30.2222 50.6064 29.9429C49.9717 29.6636 49.3877 29.2256 48.8545 28.6289C48.334 28.0322 47.8516 27.3594 47.4072 26.6104C46.9629 25.8486 46.5376 25.0806 46.1313 24.3062L44.9316 22.002C43.5225 19.3232 41.9863 17.7173 40.3232 17.1841C40.0693 17.1079 39.8408 17.0889 39.6377 17.127C39.4346 17.1523 39.1997 17.1841 38.9331 17.2222C38.7808 17.1714 38.6665 16.9937 38.5903 16.689C38.5142 16.3716 38.4761 16.1177 38.4761 15.9272C38.4761 15.7241 38.5522 15.5527 38.7046 15.4131L48.3594 4.71094C48.6768 4.36816 48.8354 4.08887 48.8354 3.87305C48.8354 3.41602 48.1182 3.09229 46.6836 2.90186C46.0615 2.82568 45.6807 2.69238 45.541 2.50195C45.4141 2.29883 45.3506 2.07031 45.3506 1.81641C45.3506 1.33398 45.4521 0.96582 45.6553 0.711914C45.8838 0.775391 46.0996 0.807129 46.3027 0.807129H53.7104C55.0815 0.807129 55.9639 0.991211 56.3574 1.35938C56.5352 1.52441 56.624 1.72754 56.624 1.96875C56.624 2.55273 56.5225 2.95898 56.3193 3.1875Z" fill="white"/>
</svg>
